<svg id="Layer_1" enable-background="new 0 0 479.971 479.971" height="512" viewBox="0 0 479.971 479.971" width="512" xmlns="http://www.w3.org/2000/svg"><ellipse cx="234.387" cy="239.971" fill="#fff0a6" rx="126.41" ry="126.41" transform="matrix(.707 -.707 .707 .707 -101.035 236.023)"></ellipse><path d="m157.977 259.971c0 43.55 22.03 81.96 55.54 104.69-59.88-9.94-105.54-61.99-105.54-124.69 0-69.81 56.6-126.41 126.41-126.41 26.27 0 50.66 8.01 70.87 21.72-77.277-12.861-147.28 46.746-147.28 124.69z" fill="#fff8d6"></path><path d="m410.477 322.191v-275.58c0-51.531-77.41-51.502-77.41 0v275.58c-24.56 13.63-41.18 39.82-41.18 69.9 0 44.76 36.82 80.92 81.82 79.86 42.64-1.01 77.3-35.99 77.94-78.63.46-30.59-16.28-57.32-41.17-71.13z" fill="#cbe3fa"></path><path d="m403.277 22.991c-19.84-.67-40.21 12.2-40.21 38.62v275.58c-49.983 27.739-55.343 96.956-11.17 132.29-34.5-8.84-60.01-40.13-60.01-77.39 0-30.08 16.62-56.27 41.18-69.9v-275.58c0-41.81 51-49.69 70.21-23.62z" fill="#eef7ff"></path><path d="m371.767 352.971c21.61 0 39.12 17.51 39.12 39.12 0 21.6-17.51 39.11-39.12 39.11-21.6 0-39.12-17.51-39.12-39.11 0-21.61 17.52-39.12 39.12-39.12z" fill="#ff6d7a"></path><g><path d="m85.983 101.279c9.172 2.312 11.17 6.678 14.481 13.913 2.75 6.009 6.173 13.489 14.425 19.602 3.572 2.647 8.578 1.861 11.19-1.667 2.63-3.55 1.884-8.56-1.667-11.19-4.941-3.661-7.008-8.175-9.399-13.403-3.789-8.279-8.504-18.583-25.12-22.77-4.284-1.081-8.632 1.518-9.713 5.802-1.078 4.286 1.519 8.634 5.803 9.713z"></path><path d="m127.544 348.279c-3.548-2.63-8.56-1.884-11.19 1.666-3.66 4.941-8.175 7.007-13.402 9.399-8.279 3.789-18.583 8.504-22.771 25.121-1.079 4.284 1.519 8.632 5.803 9.712 4.285 1.081 8.633-1.519 9.713-5.803 2.311-9.172 6.678-11.17 13.913-14.481 6.009-2.75 13.488-6.173 19.602-14.424 2.629-3.55 1.883-8.561-1.668-11.19z"></path><path d="m82.253 241.007c-.651-4.37-4.723-7.385-9.091-6.734-6.081.903-10.736-.826-16.125-2.831-8.531-3.175-19.151-7.127-33.863 1.662-3.793 2.266-5.03 7.178-2.764 10.971s7.175 5.033 10.971 2.765c8.119-4.851 12.619-3.176 20.077-.402 8.14 3.03 14.992 5.013 24.06 3.661 4.37-.652 7.385-4.722 6.735-9.092z"></path><path d="m224.26 81.102c.654 4.387 4.741 7.385 9.091 6.734 4.37-.65 7.386-4.721 6.735-9.091-.906-6.083.825-10.736 2.83-16.124 3.176-8.533 7.127-19.153-1.662-33.863-2.266-3.792-7.174-5.032-10.971-2.765-3.793 2.266-5.03 7.178-2.764 10.971 4.851 8.12 3.176 12.621.401 20.078-2.304 6.194-5.172 13.903-3.66 24.06z"></path><path d="m244.514 398.84c-.651-4.37-4.727-7.384-9.091-6.734-4.37.65-7.386 4.721-6.735 9.091.906 6.083-.825 10.736-2.83 16.124-3.176 8.533-7.127 19.153 1.662 33.863 2.273 3.805 7.187 5.024 10.971 2.765 3.793-2.266 5.03-7.178 2.764-10.971-4.851-8.12-3.176-12.621-.401-20.078 2.303-6.194 5.171-13.903 3.66-24.06z"></path><path d="m379.769 345.661v-261.856c0-4.418-3.582-8-8-8s-8 3.582-8 8v261.856c-22.182 3.812-39.118 23.172-39.118 46.425 0 25.981 21.137 47.119 47.118 47.119s47.119-21.137 47.119-47.119c.001-23.253-16.936-42.613-39.119-46.425zm-8 77.544c-17.158 0-31.118-13.96-31.118-31.119s13.96-31.119 31.118-31.119c17.159 0 31.119 13.96 31.119 31.119s-13.959 31.119-31.119 31.119z"></path><path d="m452.695 142.749c4.418 0 8-3.582 8-8s-3.582-8-8-8h-34.219v-34.944h21.994c4.418 0 8-3.582 8-8s-3.582-8-8-8h-21.994c0-31.251.102-31.092-.292-34.943h34.51c4.418 0 8-3.582 8-8s-3.582-8-8-8h-38.984c-19.603-40.044-88.648-30.947-88.648 21.747v271.02c-7.668 4.817-14.438 10.732-20.169 17.463-20.505 15.23-44.864 23.287-70.508 23.287-65.29 0-118.407-53.117-118.407-118.407s53.117-118.407 118.407-118.407c19.122 0 37.37 4.415 54.236 13.122 3.928 2.025 8.752.486 10.778-3.439 2.027-3.926.487-8.752-3.438-10.779-18.888-9.75-40.181-14.904-61.576-14.904-74.112 0-134.407 60.295-134.407 134.407s60.295 134.407 134.407 134.407c19.072 0 37.512-3.946 54.516-11.514-20.633 58.434 23.894 118.534 84.999 117.081 46.954-1.114 85.035-39.522 85.742-86.506.466-30.89-15.197-59.512-41.167-75.812v-174.879zm-9.05 250.449c-.573 38.109-32.03 69.848-70.123 70.752-73.948 1.697-102.646-98.102-36.577-134.766 2.542-1.411 4.118-4.088 4.118-6.995v-275.581c0-40.973 61.413-40.993 61.413 0v275.582c0 2.907 1.576 5.584 4.118 6.995 23.255 12.905 37.452 37.433 37.051 64.013z"></path></g></svg>