<svg id="Layer_1" enable-background="new 0 0 468 468" height="512" viewBox="0 0 468 468" width="512" xmlns="http://www.w3.org/2000/svg"><g><g><g><g><path d="m300.968 403.705c-2.699 0-5.151-1.838-5.823-4.583l-16.378-66.973c-.789-3.225 1.181-6.481 4.399-7.27 3.219-.792 6.467 1.182 7.256 4.409l16.378 66.973c.789 3.225-1.181 6.481-4.399 7.27-.48.119-.96.174-1.433.174z" fill="#333"></path></g><g><path d="m273.273 400.037c-1.384 0-2.775-.478-3.908-1.452-2.513-2.165-2.8-5.961-.64-8.48l20.853-24.316c1.542-1.797 3.994-2.521 6.26-1.844l33.118 9.864c3.176.945 4.986 4.293 4.042 7.476-.944 3.185-4.283 5.004-7.461 4.051l-29.392-8.754-18.319 21.362c-1.186 1.383-2.864 2.093-4.553 2.093z" fill="#333"></path></g></g><g><g><path d="m167.68 423.628c-2.7 0-5.152-1.839-5.823-4.584l-16.245-66.508c-.788-3.226 1.183-6.481 4.401-7.27 3.22-.791 6.466 1.185 7.255 4.411l16.245 66.508c.788 3.226-1.183 6.481-4.401 7.27-.48.117-.96.173-1.432.173z" fill="#333"></path></g><g><path d="m139.985 419.96c-1.308 0-2.624-.426-3.728-1.305-2.595-2.065-3.028-5.847-.967-8.448l19.574-24.697c1.523-1.922 4.06-2.723 6.408-2.024l34.397 10.246c3.176.945 4.986 4.293 4.042 7.476-.944 3.184-4.285 4.998-7.461 4.051l-30.511-9.088-17.052 21.516c-1.184 1.494-2.935 2.273-4.702 2.273z" fill="#333"></path></g></g><g><g><g><path d="m389.705 22.069c-6.263-3.665-15.62.005-24.186 8.475-2.555-14.844-9.683-25.533-18.083-25.533s-15.528 10.688-18.083 25.533c-8.566-8.469-17.923-12.14-24.186-8.475-9.133 5.344-8.23 24.258 2.015 42.245 10.246 17.987 25.955 28.236 35.088 22.892 2.431-1.422 4.144-3.813 5.166-6.885 1.022 3.072 2.735 5.463 5.166 6.885 9.133 5.344 24.842-4.905 35.088-22.892 10.245-17.987 11.148-36.901 2.015-42.245z" fill="#f95a66"></path></g><g><path d="m326.182 64.314c-9.126-16.021-10.832-32.768-4.644-40.017-6.085-3.755-11.986-4.794-16.371-2.228-9.133 5.344-8.23 24.258 2.016 42.245s25.955 28.236 35.088 22.892c.997-.584 1.867-1.338 2.624-2.228-6.587-4.065-13.388-11.316-18.713-20.664z" fill="#ed3252"></path></g></g><g><g><path d="m408.157 99.486 8.513 56.04c7.693-12.996 21.043-21.626 36.055-23.309l9.313-1.043z" fill="#f95a66"></path></g><g><path d="m446.125 121.815-3.4.381c-11.11 1.245-21.303 6.304-28.974 14.115l2.919 19.215c7.693-12.996 21.043-21.626 36.055-23.309l9.313-1.043z" fill="#ed3252"></path></g></g><g><g><path d="m417.085 154.669-.799 37.803c-.156 7.382 4.037 14.239 10.893 17.811 13.9 7.243 30.988-2.032 31.319-17 .201-9.078-4.74-17.571-12.968-22.292z" fill="#f95a66"></path></g><g><path d="m430.18 196.253c-6.856-3.573-11.049-10.429-10.893-17.811l.47-22.24-2.671-1.533-.799 37.802c-.156 7.382 4.037 14.239 10.893 17.811 13.9 7.243 30.988-2.033 31.319-17 .029-1.29-.058-2.565-.232-3.822-5.662 8.428-17.753 12.178-28.087 6.793z" fill="#ed3252"></path></g></g><g><g><path d="m6.038 206.633c0-13.661 11.684-25.658 29.306-32.534-15.305-16.058-21.399-34.859-13.737-48.126 7.522-13.024 26.294-17.227 47.379-12.437-2.284-17.901 2.353-33.182 13.795-39.785 18.495-10.675 47.743 5.355 65.328 35.804 7.026 12.166 11.118 24.789 12.33 36.247 128.077 12.975 106.344-80.304 186.594-80.304 39.595 0 71.692 32.404 71.692 72.376 0 39.851-31.905 72.171-71.333 72.367v.739c0 81.015-65.695 146.691-146.734 146.691-64.199 0-102.283-31.484-124.765-66.246-9.504-14.695-16.55-30.633-21.113-47.215-27.959-4.081-48.742-19.351-48.742-37.577z" fill="#ffcf57"></path></g><g><path d="m390.603 80.412c9.468 12.266 17.742 27.886 15.123 44.435-7.523 47.539-41.021 64.892-63.367 70.908-4.785 1.288-7.927 5.85-8.214 10.807-4.458 77.008-68.338 138.082-146.486 138.082-43.398 0-74.85-14.396-97.628-34.457 23.321 26.564 58.296 47.485 110.628 47.485 81.039 0 146.734-65.675 146.734-146.691v-.739c39.428-.196 71.333-32.517 71.333-72.367 0-23.423-11.031-44.234-28.123-57.463z" fill="#ffb81a"></path></g><g><path d="m78.502 223.304c-.288 0-.579-.021-.872-.064-2.415-.352-4.946-.647-7.626-.958-12.018-1.397-25.638-2.979-35.828-10.862-2.623-2.029-3.108-5.804-1.083-8.433s5.793-3.116 8.416-1.085c7.551 5.841 18.901 7.16 29.877 8.435 2.77.322 5.386.625 7.974 1.003 3.279.479 5.55 3.531 5.073 6.817-.436 2.992-3 5.147-5.931 5.147z" fill="#333"></path></g><g><path d="m133.17 179.272c-3.03 0-5.632-2.293-5.959-5.38l-.111-1.045c-2.638-24.97-5.921-56.048-30.669-65.984-3.076-1.234-4.571-4.735-3.339-7.817s4.724-4.583 7.801-3.345c31.458 12.629 35.321 49.187 38.141 75.881l.11 1.042c.35 3.302-2.038 6.263-5.333 6.614-.216.022-.43.034-.641.034z" fill="#333"></path></g><g><ellipse cx="375.581" cy="118.108" fill="#333" rx="8.247" ry="10.077"></ellipse></g></g></g><g><g><path d="m230.874 291.848c-36.79 10.23-67.56 3.666-94.069-20.067-12.164-10.89-21.968-24.353-28.937-39.368 52.243-4.755 102.968-73.942 147.87-67.56 36.302 5.158 55.697 45.18 37.589 77.659-12.996 23.313-34.934 41.685-62.453 49.336z" fill="#fd9"></path></g><g><path d="m285.737 180.188c6.315 14.377 6.284 31.7-2.409 47.292-12.997 23.313-34.935 41.684-62.453 49.336-36.79 10.23-67.56 3.666-94.069-20.067-5.229-4.682-10.019-9.842-14.338-15.393 6.456 11.43 14.645 21.746 24.338 30.425 26.509 23.733 57.279 30.297 94.069 20.067 27.518-7.652 49.456-26.023 62.453-49.336 12.042-21.601 7.483-46.525-7.591-62.324z" fill="#ffeacc"></path></g><g><path d="m199.43 275.12c-17.977 0-33.508-6.324-48.212-19.489-2.471-2.213-2.685-6.014-.477-8.49 2.209-2.477 6.001-2.689 8.472-.479 14.979 13.412 30.237 18.289 49.475 15.815 3.292-.419 6.293 1.905 6.715 5.199s-1.901 6.306-5.188 6.729c-3.695.476-7.287.715-10.785.715z" fill="#333"></path></g></g><g><ellipse cx="327.999" cy="275.562" fill="#333" rx="7.073" ry="7.077"></ellipse></g><g fill="#333"><path d="m462.742 137.392c5.597-.628 7.231-8.31 2.371-11.175l-53.273-31.382c-5.737-8.742-13.158-16.251-21.79-22.07.997-1.495 1.958-3.025 2.859-4.602 12.263-21.475 12.189-43.111-.172-50.328-6.631-3.87-15.109-2.693-23.697 3.012-4.364-12.925-12.328-20.847-21.595-20.847s-17.231 7.922-21.596 20.847c-8.587-5.707-17.064-6.881-23.697-3.012-12.36 7.218-12.435 28.854-.172 50.328.63 1.104 1.296 2.184 1.977 3.253-11.283 7.2-19.952 16.801-28.464 26.249-21.43 23.79-43.567 48.369-109.769 42.856-1.88-11.268-6.133-22.847-12.434-33.778-19.539-33.895-51.838-50.62-73.527-38.077-11.454 6.622-17.684 20.436-17.354 37.787-21.054-2.789-38.301 3.336-46.029 16.742-7.889 13.684-4.339 31.988 9.112 49.084-16.112 8.386-25.492 20.989-25.492 34.755 0 20.176 20.379 37.497 50.032 42.977 2.187 7.336 4.853 14.551 7.945 21.497 1.401 3.149 5.272 4.477 8.306 2.856 2.744-1.467 3.92-4.922 2.652-7.771-3.367-7.565-6.192-15.475-8.398-23.508-.633-2.304-2.563-4.015-4.92-4.361-25.272-3.696-43.614-17.024-43.614-31.69 0-10.499 9.766-20.839 25.487-26.984 3.912-1.529 5.072-6.716 2.162-9.775-13.824-14.53-18.881-30.64-12.885-41.042 5.854-10.152 21.893-13.92 40.867-9.605 3.995.909 7.799-2.555 7.279-6.64-2.051-16.104 2.001-28.769 10.84-33.879 15.341-8.872 41.514 6.547 57.15 33.672 6.387 11.079 10.384 22.814 11.558 33.937.299 2.835 2.538 5.072 5.364 5.359 75.897 7.704 101.756-21.001 124.57-46.328 16.486-18.3 30.723-34.105 62.658-34.105 36.229 0 65.703 29.83 65.703 66.496 0 36.48-29.504 66.306-65.551 66.487-3.766.019-6.237 3.18-6.149 6.764 0 13.117-1.62 26.103-5.164 38.597-.908 3.201 1.029 6.534 4.216 7.445 3.189.915 6.552-.943 7.46-4.144 3.395-11.966 5.336-24.345 5.741-36.867 23.587-1.922 44.245-14.581 57.197-33.098l-.203 9.586c-.447 21.064 24.214 32.711 41.455 22.473 19.35-11.491 14.679-38.742-3.233-48.997l-22.747-13.02c9.309-11.098 22.593-14.353 36.964-15.974 5.598-.628-14.371 1.621 0 0zm-83.052-70.771c-9.932-4.657-20.988-7.277-32.648-7.277-13.002 0-23.585 2.352-32.577 6.201-.718-1.096-1.416-2.208-2.07-3.354-9.521-16.673-8.848-31.253-4.203-33.965 3.444-2.006 10.417 1.092 16.958 7.545 3.382 3.335 9.317 1.409 10.122-3.261 2.212-12.823 7.926-20.485 12.172-20.485s9.96 7.662 12.172 20.485c.805 4.672 6.74 6.595 10.122 3.261 6.542-6.453 13.516-9.558 16.958-7.545 4.645 2.712 5.318 17.292-4.203 33.965-.874 1.532-1.823 2.997-2.803 4.43zm64.628 61.327c-7.137 1.9-13.796 5.262-19.57 9.788-.041-8.183-1.329-16.071-3.676-23.486zm-22.018 65.217.585-27.606 19.686 11.268c10.009 5.73 14.557 21.385 3.067 28.21-9.242 5.488-23.587-.071-23.338-11.872z"></path><path d="m132.882 275.65c-12.722-11.364-22.945-25.234-30.385-41.226-1.729-3.717.822-8.158 4.897-8.529 23.404-2.125 47.363-18.615 70.534-34.562 27.24-18.748 52.969-36.464 78.731-32.804 40.487 5.738 60.968 50.938 41.986 86.369-22.526 42.045-66.093 52.078-66.093 52.078-38.94 12.435-80.038-3.793-99.67-21.326-12.722-11.365 19.632 17.533 0 0zm7.985-8.978c24.867 22.209 53.81 28.329 88.483 18.714 25.117-6.968 46.008-23.434 58.824-46.365 15.624-27.958-1.274-64.062-33.197-68.587-21.135-2.991-44.995 13.425-70.255 30.811-21.799 15.004-44.26 30.463-67.682 35.339 6.298 11.472 14.29 21.569 23.827 30.088z"></path></g></g><g><ellipse cx="194.038" cy="57.122" fill="#fff" rx="24" ry="24.051"></ellipse><path d="m194.038 87.186c-16.542 0-30-13.487-30-30.064s13.458-30.064 30-30.064 30 13.487 30 30.064-13.458 30.064-30 30.064zm0-48.102c-9.925 0-18 8.092-18 18.039s8.075 18.039 18 18.039 18-8.092 18-18.039-8.074-18.039-18-18.039z" fill="#333"></path></g><g><g><path d="m316.574 353.758c-18.551 32.512-8.447 73.556 22.57 91.675s71.199 6.451 89.751-26.06c18.551-32.512 24.122-101.028-6.895-119.147s-86.875 21.02-105.426 53.532z" fill="#edf1d3"></path></g><g><path d="m422 300.226c-7.951-4.645-17.536-5.52-27.705-3.715 3.431.738 6.687 1.952 9.705 3.715 31.016 18.119 25.446 86.635 6.894 119.147-10.955 19.198-29.453 31.121-49.151 33.942 25.84 3.711 52.888-8.945 67.151-33.942 18.552-32.512 24.122-101.028-6.894-119.147z" fill="#d0daad"></path></g><g><ellipse cx="391.891" cy="330.719" fill="#fff" rx="11" ry="11.024"></ellipse></g><g><ellipse cx="408.157" cy="377.807" fill="#fff" rx="11" ry="11.024"></ellipse></g></g><g><g><path d="m151.503 353.758c18.551 32.512 8.447 73.556-22.57 91.675-31.016 18.119-71.199 6.451-89.751-26.06s-24.122-101.028 6.895-119.147 86.875 21.02 105.426 53.532z" fill="#edf1d3"></path></g><g><path d="m46.077 300.226c7.951-4.645 17.536-5.52 27.705-3.715-3.431.738-6.687 1.952-9.705 3.715-31.016 18.119-25.446 86.635-6.894 119.147 10.955 19.198 29.453 31.121 49.151 33.942-25.84 3.711-52.888-8.945-67.151-33.942-18.552-32.512-24.123-101.028 6.894-119.147z" fill="#d0daad"></path></g><g><ellipse cx="76.186" cy="330.719" fill="#fff" rx="11" ry="11.024"></ellipse></g><g><ellipse cx="59.919" cy="377.807" fill="#fff" rx="11" ry="11.024"></ellipse></g><g><ellipse cx="27.054" cy="363.983" fill="#333" rx="7.073" ry="7.077"></ellipse></g></g><g><g><path d="m462.038 384.545c-38.505 9.047-71.909 20.128-95.314 47.462 15.322-62.156 44.649-92.92 44.649-92.92-38.505 9.047-71.909 29.181-95.314 56.515 15.322-62.156 44.649-101.973 44.649-101.973-58.168 13.667-104.72 52.621-122.694 103.506-1.43 4.048-2.748 8.128-3.977 12.231-1.229-4.103-2.547-8.183-3.977-12.231-17.973-50.885-64.525-89.839-122.694-103.506 0 0 29.327 39.818 44.649 101.973-23.405-27.334-56.809-47.468-95.314-56.515s29.327 30.765 44.649 92.92c-23.405-27.334-56.809-38.415-95.314-47.462s27.31 28.039 42.99 77.443h370.021c15.682-49.405 42.991-77.443 42.991-77.443z" fill="#77bc4d"></path></g><g><path d="m462.038 384.544c-38.505 9.047-71.909 20.128-95.314 47.462 15.322-62.156 44.649-92.921 44.649-92.921-38.505 9.047-71.909 29.181-95.314 56.515 15.322-62.156 44.649-101.973 44.649-101.973-58.168 13.667-104.72 52.621-122.694 103.506-1.43 4.048-2.748 8.128-3.977 12.231-1.229-4.103-2.547-8.183-3.977-12.231-17.973-50.885-64.525-89.839-122.694-103.506 0 0 29.327 39.818 44.649 101.973-23.405-27.333-56.809-47.468-95.314-56.515s29.327 30.765 44.649 92.921c-23.405-27.334-56.809-38.416-95.314-47.462s27.31 28.039 42.99 77.443l18.153-.457c-4.795-15.108-11.608-33.394-17.494-44.681 15.304 6.646 27.865 15.062 38.005 26.904 5.429 6.34 14.491 8.113 21.903 4.289 7.411-3.827 11.231-12.252 9.231-20.363-4.994-20.259-11.421-37.47-17.967-51.631 14.33 8.538 27.056 19.105 37.497 31.299 5.429 6.342 14.491 8.116 21.903 4.289 7.411-3.827 11.231-12.252 9.231-20.362-6.108-24.779-14.309-46.177-22.186-63.262 31.17 17.211 54.624 43.533 65.788 75.139 1.271 3.601 2.519 7.436 3.706 11.398 2.285 7.629 9.292 12.852 17.24 12.852s14.955-5.223 17.24-12.852c1.187-3.963 2.434-7.797 3.706-11.398 11.164-31.606 34.618-57.928 65.788-75.139-7.877 17.085-16.078 38.484-22.186 63.262-2 8.11 1.82 16.535 9.231 20.362 7.412 3.825 16.474 2.049 21.903-4.289 10.441-12.194 23.167-22.762 37.497-31.299-6.546 14.161-12.973 31.372-17.967 51.631-2 8.111 1.82 16.536 9.231 20.363 7.412 3.825 16.474 2.05 21.903-4.289 10.14-11.842 22.701-20.258 38.005-26.904-5.886 11.288-13.699 29.573-18.494 44.681l19.153.457c15.683-49.404 42.992-77.443 42.992-77.443z" fill="#479838"></path></g><g><ellipse cx="295.173" cy="430.647" fill="#a2d962" rx="10" ry="15.032"></ellipse></g><g><ellipse cx="178.948" cy="429.861" fill="#a2d962" rx="10" ry="15.032"></ellipse></g><g><ellipse cx="231.684" cy="460.923" fill="#333" rx="7.073" ry="7.077"></ellipse></g></g><path d="m460.691 378.807c-4.272 1.001-8.614 2.051-12.993 3.181 5.855-33.759 1.382-72.631-22.666-86.646-18.218-10.618-42.313-4.175-63.232 7.738 2.291-3.552 3.682-5.464 3.744-5.548 3.252-4.403-.956-10.646-6.19-9.431-54.528 12.781-104.48 49.416-125.314 102.609-20.835-53.193-70.786-89.828-125.314-102.609-5.312-1.236-9.385 5.092-6.193 9.428.062.084 1.454 1.996 3.745 5.548-20.921-11.911-45.016-18.353-63.231-7.736-12.828 7.476-21.112 22.547-23.955 43.587-.439 3.247 1.902 6.323 5.141 6.764s6.313-1.906 6.752-5.152c1.623-12.013 6.08-27.803 18.095-34.805 18.37-10.706 48.663 2.945 70.955 21.436 6.412 12.567 13.605 28.726 19.788 47.721-22.564-19.76-50.879-34.201-81.766-41.44-5.685-1.333-9.661 5.869-5.7 10.014.247.258 21.821 23.227 37.101 69.042-24.33-18.855-54.645-27.275-82.069-33.703-5.716-1.349-9.667 5.933-5.66 10.056.264.271 26.553 27.718 41.57 74.919.793 2.494 3.105 4.218 5.717 4.218h154.023c3.314 0 6-2.692 6-6.013s-2.687-6.013-6-6.013h-149.684c-9.381-28.06-22.085-48.396-31.266-61.042 32.23 8.776 56.53 19.845 74.703 41.017 4.034 4.699 11.825.502 10.374-5.374-9.545-38.625-24.319-65.329-34.578-80.474 29.603 10.028 55.75 27.234 74.872 49.513 4.033 4.699 11.825.508 10.374-5.367-10.327-41.792-26.727-73.419-36.815-90.269 49.542 15.937 87.618 50.721 103.386 95.252 1.338 3.779 2.645 7.791 3.887 11.925 1.675 5.582 9.848 5.478 11.492 0 1.241-4.134 2.549-8.146 3.887-11.925 15.767-44.531 53.844-79.315 103.386-95.252-10.088 16.849-26.488 48.476-36.815 90.268-1.486 6.016 6.435 9.955 10.374 5.366 19.123-22.279 45.269-39.487 74.872-49.515-10.258 15.145-25.033 41.845-34.578 80.47-1.486 6.016 6.435 9.955 10.374 5.366 18.173-21.172 42.473-32.226 74.703-41.002-9.18 12.645-21.885 32.982-31.266 61.042h-155.853c-3.314 0-6 2.692-6 6.013s2.687 6.013 6 6.013h160.195c2.612 0 4.924-1.724 5.717-4.218 15.017-47.2 41.307-74.632 41.565-74.898 4.103-4.199-.045-11.397-5.654-10.074zm-44.969-35.339c4.041-4.228-.125-11.314-5.7-10.014-30.887 7.239-59.202 21.68-81.766 41.44 6.183-18.995 13.376-35.154 19.788-47.721 22.29-18.49 52.584-32.142 70.954-21.436 19.466 11.345 22.614 48.088 15.796 79.821-19.626 5.85-39.327 13.896-56.164 26.943 15.248-45.629 36.851-68.778 37.092-69.033z" fill="#333"></path></g></svg>