<svg height="512" viewBox="0 0 512 512" width="512" xmlns="http://www.w3.org/2000/svg"><g id="_38._Fan" data-name="38. Fan"><path d="m88 8h-48a32 32 0 0 0 -32 32v432a32 32 0 0 0 32 32h432a32 32 0 0 0 32-32v-432a32 32 0 0 0 -32-32z" fill="#596060"></path><path d="m472 480h-432a32 32 0 0 1 -32-32v24a32 32 0 0 0 32 32h432a32 32 0 0 0 32-32v-24a32 32 0 0 1 -32 32z" fill="#4c5657"></path><path d="m472 512h-48a8 8 0 0 1 0-16h48a24 24 0 0 0 24-24v-432a24 24 0 0 0 -24-24h-352a8 8 0 0 1 0-16h352a40 40 0 0 1 40 40v432a40 40 0 0 1 -40 40z"></path><path d="m392 512h-352a40 40 0 0 1 -40-40v-432a40 40 0 0 1 40-40h48a8 8 0 0 1 0 16h-48a24 24 0 0 0 -24 24v432a24 24 0 0 0 24 24h352a8 8 0 0 1 0 16z"></path><circle cx="256" cy="256" fill="#f6f6f6" r="216"></circle><path d="m256 480a224 224 0 1 1 224-224 223.87 223.87 0 0 1 -224 224zm0-432c-114.69 0-208 93.31-208 208s93.31 208 208 208 208-93.31 208-208-93.31-208-208-208z"></path><path d="m256 448c-105.87 0-192-86.13-192-192s86.13-192 192-192 192 86.13 192 192-86.13 192-192 192zm0-368c-97 0-176 79-176 176s79 176 176 176 176-78.95 176-176-78.95-176-176-176z"></path><g fill="#a8edfd"><path d="m325.13 85.43a184 184 0 0 0 -80.71-13.07 211 211 0 0 0 4.09 167.41l7.49 16.23c5.05-60.14 27.32-118.77 69.13-170.57z"></path><path d="m425.49 184.27a184.36 184.36 0 0 0 -47.82-66.27 211 211 0 0 0 -115.49 121.22l-6.18 16.78c46.85-39.57 104-64.66 169.49-71.73z"></path><path d="m439.64 244.42a211 211 0 0 0 -167.41 4.09l-16.23 7.49c60.82 5.11 119.27 27.74 170.57 69.13a184 184 0 0 0 13.07-80.71z"></path><path d="m327.73 425.49a184.36 184.36 0 0 0 66.27-47.82 211 211 0 0 0 -121.22-115.49l-16.78-6.18c39.58 46.87 64.65 104 71.73 169.49z"></path><path d="m186.87 426.57a184 184 0 0 0 80.71 13.07 211 211 0 0 0 -4.09-167.41l-7.49-16.23c-5.06 60.27-27.41 118.87-69.13 170.57z"></path><path d="m86.51 327.73a184.36 184.36 0 0 0 47.82 66.27 211 211 0 0 0 115.49-121.22l6.18-16.78c-46.89 39.6-104 64.64-169.49 71.73z"></path><path d="m85.43 186.87a184 184 0 0 0 -13.07 80.71 211 211 0 0 0 167.41-4.09l16.23-7.49c-60.82-5.11-119.28-27.74-170.57-69.13z"></path><path d="m184.27 86.51a184.36 184.36 0 0 0 -66.27 47.82 211 211 0 0 0 121.22 115.49l16.78 6.18c-39.58-46.87-64.65-104-71.73-169.49z"></path></g><path d="m426.57 325.13c-2.76-2.23-4.69-3.8-8.21-6.48a183 183 0 0 0 21.23-74.25h.05a183.88 183.88 0 0 1 -13.07 80.73z" fill="#8bd4de"></path><path d="m394 377.67a184.36 184.36 0 0 1 -66.31 47.82c-.8-7.43-1.56-13.84-3.13-22.71a184.1 184.1 0 0 0 61.87-41q4.15 7.73 7.57 15.89z" fill="#8bd4de"></path><path d="m275.82 414.94a210.4 210.4 0 0 1 -8.24 24.7 183.88 183.88 0 0 1 -80.71-13.07c4.81-6 9.08-11.42 14.28-18.88a185 185 0 0 0 74.67 7.25z" fill="#8bd4de"></path><path d="m153.42 384.77a207.57 207.57 0 0 1 -19.09 9.23 184.36 184.36 0 0 1 -47.82-66.31c3.87-.42 6.84-.73 11.5-1.38a184.75 184.75 0 0 0 55.41 58.46z" fill="#8bd4de"></path><path d="m75.7 268.89c-1.12-.42-2.23-.86-3.34-1.31a184.6 184.6 0 0 1 0-23.52 184.44 184.44 0 0 0 3.34 24.83z" fill="#8bd4de"></path><path d="m256 264a8 8 0 0 1 -7.26-4.65l-7.49-16.23a219.83 219.83 0 0 1 -4.25-173.76 8 8 0 0 1 6.92-5 191.62 191.62 0 0 1 84.22 13.64 8 8 0 0 1 3.22 12.43c-40.29 49.96-62.36 106.82-67.36 166.24a8 8 0 0 1 -8 7.33zm-6-183.9a203.87 203.87 0 0 0 1.7 146.9 318.4 318.4 0 0 1 60.3-137.89 175.63 175.63 0 0 0 -62-9.01z"></path><path d="m256 264a8 8 0 0 1 -7.51-10.76l6.18-16.78a219.81 219.81 0 0 1 119.87-125.86 8 8 0 0 1 8.46 1.4 193.46 193.46 0 0 1 49.9 69.19 8 8 0 0 1 -6.51 11.07c-64.57 7-120 31.73-165.19 69.89a8 8 0 0 1 -5.2 1.85zm120.14-136.63a203.89 203.89 0 0 0 -102.66 105.07 318.28 318.28 0 0 1 140.14-54.82 177.93 177.93 0 0 0 -37.48-50.25z"></path><path d="m426.57 333.13c-3.16 0-4.82-1.61-6.47-2.94a302.26 302.26 0 0 0 -164.77-66.19 8 8 0 0 1 -2.68-15.23l16.23-7.49a219.83 219.83 0 0 1 173.76-4.28 8 8 0 0 1 5 6.92 191.62 191.62 0 0 1 -13.64 84.22 8 8 0 0 1 -7.43 4.99zm-141.57-81.43a318.26 318.26 0 0 1 137.89 60.3 175.63 175.63 0 0 0 9-62.05 203.87 203.87 0 0 0 -146.89 1.75z"></path><path d="m319.78 426.35c-7-64.57-31.73-120-69.89-165.19a8 8 0 0 1 8.87-12.67l16.78 6.18a219.81 219.81 0 0 1 125.86 119.87 8 8 0 0 1 -1.4 8.46 193.46 193.46 0 0 1 -69.19 49.9 8 8 0 0 1 -11.03-6.55zm-40.22-152.87a318.28 318.28 0 0 1 54.82 140.14 177.93 177.93 0 0 0 50.25-37.48 203.89 203.89 0 0 0 -105.07-102.66z"></path><path d="m183.86 434a8 8 0 0 1 -3.22-12.43l1.17-1.45c16.12-19.34 33.42-47.4 45.49-77.42a302.15 302.15 0 0 0 20.7-87.37 8 8 0 0 1 15.23-2.68l7.49 16.23a219.83 219.83 0 0 1 4.28 173.76 8 8 0 0 1 -6.92 5 191.6 191.6 0 0 1 -84.22-13.64zm16.14-11.11a175.63 175.63 0 0 0 62 9 203.87 203.87 0 0 0 -1.7-146.89 318.4 318.4 0 0 1 -60.3 137.89z"></path><path d="m129 400a193.46 193.46 0 0 1 -49.9-69.19 8 8 0 0 1 6.51-11.07c63.73-6.94 119.26-31.11 165.19-69.89a8 8 0 0 1 12.67 8.87l-6.18 16.78a219.81 219.81 0 0 1 -119.83 125.9 8 8 0 0 1 -8.46-1.4zm-30.62-65.62a177.93 177.93 0 0 0 37.48 50.25 203.83 203.83 0 0 0 102.65-105.07 318.15 318.15 0 0 1 -140.13 54.82z"></path><path d="m69.36 275a8 8 0 0 1 -5-6.92 191.62 191.62 0 0 1 13.64-84.22 8 8 0 0 1 12.43-3.22c49.9 40.25 106.8 62.36 166.24 67.36a8 8 0 0 1 2.68 15.23l-16.23 7.49a219.83 219.83 0 0 1 -173.76 4.28zm10.74-13a203.87 203.87 0 0 0 146.9-1.7 318.45 318.45 0 0 1 -137.89-60.3 175.54 175.54 0 0 0 -9.01 62z"></path><path d="m256 264c-1.9 0-1 .16-19.54-6.67a219.81 219.81 0 0 1 -125.86-119.87 8 8 0 0 1 1.4-8.46 193.46 193.46 0 0 1 69.19-49.9 8 8 0 0 1 11.07 6.51c7 64.57 31.72 120 69.89 165.19a8 8 0 0 1 -6.15 13.2zm-128.63-128.14a203.87 203.87 0 0 0 105.07 102.65 318.29 318.29 0 0 1 -54.82-140.13 177.93 177.93 0 0 0 -50.25 37.48z"></path><circle cx="256" cy="256" fill="#5f79a5" r="56"></circle><path d="m256 288a56 56 0 0 1 -54.7-44 56 56 0 1 0 109.4 0 56 56 0 0 1 -54.7 44z" fill="#586f99"></path><path d="m256 320a64 64 0 1 1 64-64 64.07 64.07 0 0 1 -64 64zm0-112a48 48 0 1 0 48 48 48.05 48.05 0 0 0 -48-48z"></path><path d="m280 264a8 8 0 0 1 -8-8 16 16 0 0 0 -16-16 8 8 0 0 1 0-16 32 32 0 0 1 32 32 8 8 0 0 1 -8 8z"></path><path d="m256 288a32 32 0 0 1 -32-32 8 8 0 0 1 16 0 16 16 0 0 0 16 16 8 8 0 0 1 0 16z"></path><circle cx="56" cy="56" fill="#f6f6f6" r="16"></circle><path d="m56 80a24 24 0 1 1 24-24 24 24 0 0 1 -24 24zm0-32a8 8 0 1 0 8 8 8 8 0 0 0 -8-8z"></path><circle cx="456" cy="56" fill="#f6f6f6" r="16"></circle><path d="m456 80a24 24 0 1 1 24-24 24 24 0 0 1 -24 24zm0-32a8 8 0 1 0 8 8 8 8 0 0 0 -8-8z"></path><path d="m56 480a24 24 0 1 1 24-24 24 24 0 0 1 -24 24zm0-32a8 8 0 1 0 8 8 8 8 0 0 0 -8-8z"></path><circle cx="56" cy="456" fill="#f6f6f6" r="16"></circle><path d="m56 480a24 24 0 1 1 24-24 24 24 0 0 1 -24 24zm0-32a8 8 0 1 0 8 8 8 8 0 0 0 -8-8z"></path><circle cx="456" cy="456" fill="#f6f6f6" r="16"></circle><path d="m456 480a24 24 0 1 1 24-24 24 24 0 0 1 -24 24zm0-32a8 8 0 1 0 8 8 8 8 0 0 0 -8-8z"></path></g></svg>